<svg width="67" height="25" fill="none" xmlns="http://www.w3.org/2000/svg"><path d="M15.395 5h-3.2l-3.8 6.22L4.595 5h-3.2v14h3.2v-8.14l3.62 5.94h.36l3.62-5.94V19h3.2V5zm13.407 14l-4.18-7.18L28.602 5h-3.64l-2.16 3.7-2.16-3.7h-3.64l3.98 6.82-4.18 7.18h3.64l2.36-4.04 2.36 4.04h3.64zM39.604 5h-10.4v3.08h3.6V19h3.2V8.08h3.6V5zm3.443 10.96h5.68a4.65 4.65 0 00.096-.96c0-2.416-1.728-4.224-4.064-4.224-2.528 0-4.256 1.84-4.256 4.224 0 2.384 1.696 4.224 4.432 4.224 1.52 0 2.704-.56 3.488-1.648l-1.92-1.104c-.32.352-.88.608-1.536.608-.88 0-1.616-.288-1.92-1.12zM43 14.168c.224-.816.832-1.264 1.744-1.264.72 0 1.44.336 1.696 1.264H43zm10.948 5.056c1.568 0 2.928-.816 3.616-2.064l-2.096-1.2c-.256.56-.848.896-1.552.896-1.04 0-1.808-.752-1.808-1.856s.768-1.856 1.808-1.856c.704 0 1.28.336 1.552.896l2.096-1.216c-.688-1.232-2.064-2.048-3.616-2.048-2.432 0-4.24 1.84-4.24 4.224 0 2.384 1.808 4.224 4.24 4.224zm9.27-8.448c-1.057 0-1.857.384-2.289.976V7.8h-2.4V19h2.4v-4.368c0-1.136.608-1.648 1.488-1.648.768 0 1.392.464 1.392 1.456V19h2.4v-4.912c0-2.16-1.376-3.312-2.992-3.312z" fill="#fff"/></svg>